<svg width="24" height="24" viewBox="0 0 24 24" fill="none" xmlns="http://www.w3.org/2000/svg">
<g clip-path="url(#clip0_314_2142)">
<mask id="mask0_314_2142" style="mask-type:luminance" maskUnits="userSpaceOnUse" x="0" y="0" width="24" height="24">
<path d="M24 0H0V24H24V0Z" fill="white"/>
</mask>
<g mask="url(#mask0_314_2142)">
<path fill-rule="evenodd" clip-rule="evenodd" d="M23.968 3.60797H24L23.968 3.59998V3.60797ZM0 3.60797H23.968V16.4112C23.968 18.609 22.1858 20.3992 19.98 20.3992H19.956C17.7582 20.3992 15.968 18.609 15.968 16.4032H7.97602C7.97602 18.601 6.18581 20.3912 3.98801 20.3912C1.79021 20.3912 0 18.609 0 16.4032V3.60797ZM4.3956 8.39517V9.99358H6.39361V11.9916H7.99201V9.99358H9.99001V8.39517H7.99201V6.39718H6.39361V8.39517H4.3956ZM15.7203 7.73184C14.4655 9.3782 15.6084 11.1924 17.1828 11.1924C17.6464 11.1924 18.1578 11.0325 18.6454 10.6569C19.9001 9.01056 18.7572 7.19638 17.1828 7.19638C16.7193 7.19638 16.2078 7.35622 15.7203 7.73184Z" fill="black"/>
</g>
</g>
<defs>
<clipPath id="clip0_314_2142">
<rect width="24" height="24" fill="white"/>
</clipPath>
</defs>
</svg>
