<svg width="24" height="24" viewBox="0 0 24 24" fill="none" xmlns="http://www.w3.org/2000/svg">
<g clip-path="url(#clip0_314_2150)">
<path d="M12 0C5.36889 0 0 5.36889 0 12C0 18.6311 5.36889 24 12 24C18.6311 24 24 18.6311 24 12C24 5.36889 18.6311 0 12 0ZM12.9511 15.2267C11.7956 15.8044 10.3911 15.7422 9.28889 15.0578C8.26667 14.4267 7.68889 13.3778 7.69778 12.1867C7.69778 11.0667 8.18667 9.94667 9.04889 9.12889C9.99111 8.24 11.2356 7.77778 12.5867 7.84C14.0089 7.90222 15.3867 8.56889 16.3556 9.65333C17.4133 10.8178 17.9556 12.4089 17.84 14.0178C17.7333 15.6889 16.8978 17.3689 15.5911 18.4978C13.9289 19.9378 12.1867 20.2222 11.1022 20.2222C10.4622 20.2222 10.0533 20.1244 10.0089 20.1156C8.10667 19.9111 6.24 18.8533 4.97778 17.2267C3.65333 15.5467 3.04 13.3333 3.31556 11.1556C3.57333 8.88889 4.79111 6.76444 6.64889 5.32444C8.56 3.82222 11.0756 3.13778 13.5467 3.44C16.1156 3.74222 18.5156 5.11111 20.1333 7.19111L19.0844 8.00889C17.68 6.21333 15.6089 5.03111 13.3867 4.76444C11.2622 4.49778 9.10222 5.08444 7.46667 6.37333C5.88444 7.6 4.85333 9.39556 4.64 11.3156C4.40889 13.1467 4.91556 14.9956 6.02667 16.4C7.07556 17.7511 8.61333 18.6222 10.24 18.8C10.4089 18.8356 12.6311 19.3156 14.7289 17.4933C15.7511 16.6044 16.4444 15.2356 16.5244 13.9289C16.6133 12.6844 16.1956 11.4489 15.3778 10.5511C14.64 9.72444 13.6 9.22667 12.5422 9.17333C11.5556 9.12889 10.6578 9.46667 9.98222 10.1067C9.37778 10.6756 9.04889 11.4222 9.04889 12.1956C9.04889 13.1911 9.64444 13.7156 10.0089 13.9378C10.72 14.3822 11.6267 14.4178 12.3733 14.0444L12.9689 15.2356L12.9511 15.2267Z" fill="black"/>
</g>
<defs>
<clipPath id="clip0_314_2150">
<rect width="24" height="24" fill="white"/>
</clipPath>
</defs>
</svg>
