<svg width="29" height="24" viewBox="0 0 29 24" fill="none" xmlns="http://www.w3.org/2000/svg">
<path d="M26.1601 1C27.1615 1.00006 27.7764 1.63291 27.9345 1.82617L28.0576 1.97559L28.1455 2.15039C28.7428 3.35396 28.2682 4.49634 27.583 5.0498L24.2802 7.8877L24.2011 7.94043C24.1396 7.98435 24.0781 8.02834 24.0341 8.07227C23.7618 8.28307 23.2523 8.68733 22.4882 8.6875H22.2949C22.6813 9.13543 23.0324 9.63617 23.331 10.1807L23.3749 10.2686C24.4906 12.6054 24.3417 14.9777 24.3154 15.2412C23.7705 21.698 18.7012 23.9912 14.5283 23.9912L14.5458 24H14.2646L2.48432 23.4111C1.15776 23.3057 0.56039 22.5936 0.32319 22.1895C-0.151082 21.3725 -0.0369556 20.4157 0.244089 19.7656L3.87202 10.2422C6.23524 3.55666 11.2516 2.15039 15.038 2.15039C18.0249 2.15042 20.7486 3.02076 22.1455 3.56543L24.7626 1.46582C25.1843 1.15834 25.6769 1 26.1601 1ZM26.6611 2.88867C26.6611 2.88867 26.2741 2.42302 25.7382 2.80957L22.4179 5.47168C22.4179 5.47168 9.52171 -0.730788 5.42768 10.8213L1.7812 20.3887C1.77397 20.4045 1.21925 21.6277 2.56342 21.7412V21.7324L14.3447 22.3213C14.4075 22.3244 22.0253 22.685 22.664 15.0996C22.6664 15.0699 22.8326 12.9684 21.8818 10.9883C20.9541 9.3118 19.2104 7.59404 16.0117 7.53613H15.5654C14.9706 7.54866 12.5024 7.70974 11.0498 9.47754C11.0312 9.49701 8.66607 11.986 10.1884 15.4424C10.1884 15.4424 11.3484 18.0691 14.8183 17.9287C14.8183 17.9287 17.8761 17.8229 18.2539 14.7393C18.2574 14.7058 18.4385 12.9306 17.5771 12.043C16.8027 11.1989 16.3733 11.5873 16.3652 11.5947C15.7096 12.0405 16.3412 12.6685 16.3476 12.6748C16.8571 13.1843 16.9619 13.6682 16.9355 14.1162C16.8652 14.9684 16.505 16.339 14.9765 16.5322C14.9513 16.5359 13.5432 16.7361 12.4462 15.9961C10.8652 15.0472 11.0849 12.9385 11.0849 12.9385C11.0852 12.9 11.1252 8.94935 15.7324 8.79199C15.7485 8.7917 21.7584 8.68704 21.1005 15.4336C21.1005 15.4336 20.8537 19.1763 16.8564 20.4502C15.9252 20.7488 14.7306 20.9335 13.4042 20.7402C13.4042 20.7402 6.52542 19.9928 6.7187 12.543C6.7224 12.4824 7.11048 6.39687 13.413 5.20801C13.413 5.20801 17.2783 4.39961 21.5654 6.5957C21.5654 6.5957 22.0314 6.8858 22.4882 7.00879C22.7517 7.00875 22.9279 6.78894 23.2617 6.56055L26.5468 3.74023C26.5556 3.73312 26.9301 3.42689 26.6611 2.88867ZM5.46284 14.292C5.46142 14.3327 5.32454 18.5375 9.44233 20.8193L3.59077 20.4414C3.14329 20.4412 3.33686 20.0898 3.33686 20.0898L5.46284 14.292Z" fill="black"/>
</svg>
